<?xml version="1.0" encoding="UTF-8" standalone="no"?>
<!DOCTYPE svg PUBLIC "-//W3C//DTD SVG 1.1//EN" "http://www.w3.org/Graphics/SVG/1.1/DTD/svg11.dtd">
<svg width="100%" height="100%" viewBox="0 0 984 852" version="1.1" xmlns="http://www.w3.org/2000/svg" xmlns:xlink="http://www.w3.org/1999/xlink" xml:space="preserve" xmlns:serif="http://www.serif.com/" style="fill-rule:evenodd;clip-rule:evenodd;stroke-linejoin:round;stroke-miterlimit:2;">
    <g transform="matrix(0.24,0,0,0.24,-0,-65.851194)">
        <g id="A" transform="matrix(0.651111,0,0,0.651111,718.988082,538.703459)">
            <g transform="matrix(0,3.11425,-3.11425,0,7491.081056,-3630.184763)">
                <path d="M1910,740L2784.686,1245L2784.686,2255L1910,2760L1035.314,2255L1035.314,1245L1910,740Z"/>
            </g>
            <g id="レイヤー6" transform="matrix(1.535836,0,0,1.535836,-1104.247759,-827.360149)">
                <g transform="matrix(0,1.591288,-1.591288,0,4832.753239,-991.35925)">
                    <path d="M1910,740L1910,1750.738L2246.667,1944.476L2308.038,1360.578L2513.9,1581.667L2784.686,1245L2784.686,2255L1910,2760L1035.314,2255L1035.314,1245L1910,740Z" style="fill:white;"/>
                </g>
                <g transform="matrix(1.141902,0,-0,1.141902,-290.615597,-290.615597)">
                    <path d="M640.523,2048L1344.262,829.09L2048,2048L1344.262,3266.91L640.523,2048Z" style="fill:rgb(226,226,226);"/>
                </g>
                <g transform="matrix(1.141902,0,-0,1.141902,-290.615597,-290.615597)">
                    <path d="M1344.262,3266.91L2751.738,3266.91L2282.579,2889.559L3212.824,2468.286L1805.198,2468.286L1344.262,3266.91" style="fill:rgb(201,201,201);"/>
                </g>
            </g>
        </g>
    </g>
</svg>
